<?xml version="1.0" standalone="no"?>
<!DOCTYPE svg PUBLIC "-//W3C//DTD SVG 20010904//EN"
 "http://www.w3.org/TR/2001/REC-SVG-20010904/DTD/svg10.dtd">
<svg version="1.0" xmlns="http://www.w3.org/2000/svg"
 width="51.000000pt" height="102.000000pt" viewBox="0 0 51.000000 102.000000"
 preserveAspectRatio="xMidYMid meet">

<g transform="translate(0.000000,102.000000) scale(0.100000,-0.100000)"
fill="#000000" stroke="none">
<path fill="#f70031" d="M293 902 c-95 -65 -180 -123 -190 -130 -10 -6 -37 -24 -60 -39 l-43
-27 0 -196 0 -196 41 -24 c22 -14 46 -29 52 -35 7 -5 30 -22 52 -36 189 -123
311 -205 313 -211 2 -5 15 -8 28 -8 l24 0 0 193 -1 192 -89 60 c-50 33 -90 62
-90 66 0 4 40 33 90 65 l90 59 0 193 0 192 -22 -1 c-13 0 -100 -53 -195 -117z
m163 -227 c-5 -14 -171 -125 -187 -125 -13 0 -198 122 -198 130 0 3 86 62 192
131 l192 126 3 -126 c1 -69 1 -130 -2 -136z m-294 -131 c55 -35 57 -32 -44
-97 l-58 -37 0 100 0 100 27 -17 c16 -10 49 -32 75 -49z m208 -133 l85 -58 3
-137 3 -137 -33 23 c-18 13 -41 28 -50 33 -53 32 -308 201 -308 205 0 9 185
130 200 130 8 0 53 -26 100 -59z"/>
</g>
</svg>
