<?xml version="1.0" standalone="no"?>
<!DOCTYPE svg PUBLIC "-//W3C//DTD SVG 20010904//EN"
 "http://www.w3.org/TR/2001/REC-SVG-20010904/DTD/svg10.dtd">
<svg version="1.0" xmlns="http://www.w3.org/2000/svg"
 width="591.000000pt" height="591.000000pt" viewBox="0 0 591.000000 591.000000"
 preserveAspectRatio="xMidYMid meet">

<g transform="translate(0.000000,591.000000) scale(0.100000,-0.100000)"
fill="#000000" stroke="none">
<path d="M940 5896 c0 -11 10 -16 32 -16 34 0 29 13 -9 25 -17 5 -23 2 -23 -9z"/>
<path d="M1410 5904 c-8 -2 -94 -8 -190 -14 -96 -5 -186 -12 -200 -14 -14 -2
-62 -10 -107 -17 -45 -7 -80 -16 -78 -20 3 -4 -4 -5 -15 -2 -12 3 -20 0 -20
-7 0 -7 -7 -10 -15 -6 -8 3 -15 1 -15 -4 0 -6 -11 -10 -24 -10 -13 0 -34 -8
-47 -18 -29 -22 -80 -44 -86 -38 -3 2 -17 -8 -31 -23 -18 -17 -36 -26 -52 -24
-14 1 -19 0 -13 -3 19 -8 -11 -36 -30 -28 -8 3 -18 1 -22 -5 -3 -7 0 -8 9 -5
9 3 16 1 16 -5 0 -10 -14 -15 -33 -12 -5 1 -6 -3 -3 -8 3 -5 -11 -21 -32 -37
-20 -15 -31 -20 -23 -11 12 15 11 17 -7 17 -24 0 -37 -15 -22 -25 17 -11 -20
-55 -46 -55 -20 0 -24 -5 -24 -29 0 -16 -7 -34 -15 -41 -8 -7 -15 -9 -15 -6 0
4 -9 2 -20 -4 -11 -6 -20 -16 -19 -23 3 -19 -22 -77 -31 -72 -4 3 -13 -10 -19
-28 -9 -23 -14 -28 -20 -19 -7 11 -9 10 -14 -3 -4 -9 -3 -13 3 -10 6 3 10 3
10 0 0 -6 -30 -63 -49 -95 -14 -22 -61 -184 -61 -209 0 -12 -4 -21 -8 -21 -5
0 -8 -20 -7 -46 1 -25 -1 -64 -5 -87 -5 -23 -11 -89 -15 -147 -11 -153 -15
-3295 -5 -3425 5 -60 11 -144 14 -185 5 -52 3 -70 -4 -60 -8 12 -10 10 -10
-11 0 -15 7 -29 15 -33 9 -3 15 -18 15 -38 0 -18 6 -51 14 -73 8 -22 12 -58
11 -80 -3 -26 -1 -34 5 -25 5 8 7 24 4 35 -4 18 -4 18 6 3 6 -9 11 -35 13 -57
1 -28 6 -40 14 -36 16 5 33 -26 36 -64 1 -16 5 -27 10 -24 4 2 7 -6 7 -19 0
-26 14 -51 25 -46 4 1 14 -7 23 -20 12 -18 12 -22 1 -22 -11 -1 -11 -3 1 -13
8 -7 15 -28 15 -47 0 -34 14 -45 40 -31 20 11 30 6 44 -23 8 -16 22 -31 31
-33 9 -3 24 -18 34 -34 10 -17 29 -35 42 -41 16 -7 23 -17 19 -26 -4 -12 -3
-13 10 -2 12 10 15 10 15 -2 0 -8 15 -21 32 -29 18 -8 32 -20 31 -26 -2 -8 4
-10 14 -6 10 4 14 2 10 -4 -5 -7 6 -14 25 -18 18 -4 40 -13 48 -20 8 -7 25
-16 38 -20 18 -5 21 -10 12 -20 -14 -17 0 -25 35 -19 17 3 42 -3 66 -15 21
-11 45 -18 54 -15 8 4 15 1 15 -4 0 -6 17 -14 38 -17 61 -11 69 -14 52 -25
-11 -7 -5 -10 20 -9 30 0 32 2 15 10 -14 6 -1 8 40 4 33 -3 101 -9 150 -13
157 -12 3655 -8 3695 4 21 7 45 8 58 3 13 -5 22 -4 22 1 0 5 6 7 14 4 8 -3 17
-1 20 5 4 6 13 8 20 5 8 -3 53 9 102 26 62 22 89 27 94 19 6 -8 9 -8 14 0 4 6
4 16 0 22 -4 8 1 9 16 4 17 -5 21 -4 15 5 -5 8 -4 11 3 6 14 -9 63 14 55 27
-3 6 -1 7 5 3 6 -3 21 5 34 19 18 20 32 25 58 23 22 -2 35 2 36 10 1 6 2 16 3
22 0 5 15 17 31 25 17 9 28 20 25 25 -3 5 8 16 25 25 16 8 30 19 30 24 0 5 7
12 16 15 11 4 15 2 11 -8 -3 -8 1 -17 9 -20 8 -3 14 1 14 9 0 8 5 15 10 15 6
0 10 5 10 10 0 6 -7 10 -16 10 -13 0 -14 3 -4 15 7 8 16 12 21 9 5 -3 9 2 9
10 0 9 8 24 18 34 35 36 78 98 105 151 15 31 25 47 22 36 -5 -19 -4 -18 14 2
10 12 22 43 26 68 5 34 10 45 20 41 8 -3 17 -1 20 4 3 4 1 10 -4 12 -8 3 25
138 40 163 4 6 7 35 8 66 1 30 7 71 13 90 9 25 13 470 16 1767 3 1635 -1 1947
-25 2081 -4 24 -2 32 6 27 7 -5 11 6 11 36 0 29 -3 38 -9 29 -5 -8 -7 -21 -4
-30 4 -14 3 -14 -6 -1 -6 8 -11 32 -11 52 0 21 -6 43 -14 50 -10 9 -11 20 -5
37 5 13 7 26 4 29 -3 3 -5 0 -5 -6 0 -7 -5 -12 -11 -12 -5 0 -8 4 -5 9 4 5 1
11 -4 13 -6 2 -13 16 -16 32 -3 16 -7 33 -10 37 -2 4 0 10 6 14 5 3 10 11 10
17 0 7 -5 7 -14 -1 -11 -10 -20 0 -46 54 -17 35 -36 67 -41 71 -5 3 -7 9 -4
14 7 12 -5 40 -17 40 -6 0 -4 -8 3 -17 13 -16 12 -17 -3 -5 -9 7 -19 24 -22
37 -4 14 -12 25 -20 25 -7 0 -19 14 -26 31 -7 17 -24 37 -37 46 -12 8 -23 20
-23 26 0 7 4 7 12 -1 7 -7 17 -12 22 -12 18 0 -9 20 -34 25 -29 6 -43 26 -27
38 8 5 3 7 -11 4 -30 -7 -52 1 -52 18 0 13 -42 42 -105 74 -23 12 -26 17 -12
19 29 6 19 22 -12 20 -17 -1 -38 5 -50 16 -11 10 -25 15 -30 11 -6 -3 -11 -1
-11 5 0 6 -4 8 -10 5 -5 -3 -19 -1 -31 6 -17 9 -19 13 -8 20 8 5 10 9 4 9 -55
4 -103 15 -116 26 -8 8 -23 14 -33 14 -9 0 -26 5 -38 11 -11 6 -34 12 -52 13
-17 2 -37 4 -44 5 -7 0 -10 6 -7 11 3 6 -3 10 -15 10 -12 0 -19 -4 -16 -8 5
-9 -156 -6 -259 4 -64 7 -3200 14 -3225 8z m-1146 -469 c-7 -16 -24 -21 -24
-6 0 8 7 13 27 20 1 1 0 -6 -3 -14z m1471 -749 c7 -6 10 -17 7 -24 -2 -7 5
-12 18 -12 12 0 18 5 15 10 -3 6 -1 10 4 10 6 0 11 -4 11 -10 0 -5 7 -10 15
-10 7 0 18 -7 23 -17 5 -9 25 -21 43 -28 19 -6 33 -16 32 -21 -1 -6 9 -23 23
-39 14 -16 22 -35 19 -43 -5 -13 -3 -13 12 -1 9 8 14 9 10 2 -4 -6 -3 -14 3
-18 5 -3 10 -16 10 -28 0 -12 7 -31 15 -41 30 -40 10 -255 -24 -257 -10 0 -12
-2 -3 -6 21 -8 13 -23 -13 -23 -26 0 -53 -34 -35 -45 5 -3 2 -19 -8 -39 -18
-35 -64 -62 -95 -57 -24 3 -47 -17 -40 -35 3 -10 -4 -16 -26 -20 -17 -4 -28
-11 -25 -16 3 -5 -6 -6 -22 -2 -21 5 -25 4 -19 -6 6 -10 -8 -12 -71 -7 -81 6
-186 37 -192 56 -2 6 -8 11 -13 11 -6 0 -7 -5 -3 -12 4 -7 3 -8 -5 -4 -6 4 -9
12 -6 17 6 8 -2 11 -21 8 -4 0 -10 5 -15 13 -5 7 -14 13 -21 13 -7 0 -13 5
-13 10 -1 19 -30 55 -44 55 -8 0 -12 3 -8 6 3 4 0 13 -8 21 -8 8 -18 32 -21
54 -4 21 -10 39 -14 39 -3 0 -7 6 -8 13 0 6 -6 34 -12 60 -14 56 -8 77 18 72
15 -3 18 2 14 26 -2 16 -8 27 -12 24 -8 -5 8 66 24 108 6 15 16 27 23 27 7 0
17 8 22 18 9 15 12 15 21 2 8 -11 9 -8 4 13 -4 17 -2 27 6 27 6 0 8 6 4 13 -6
10 -4 10 7 0 16 -15 33 -17 24 -3 -3 5 -1 18 4 27 6 10 11 14 11 10 0 -4 12 4
27 18 16 14 40 25 55 25 16 0 28 4 28 9 0 27 219 33 245 7z m228 -581 c-3 -9
-8 -14 -10 -11 -3 3 -2 9 2 15 9 16 15 13 8 -4z m1996 -552 c25 -3 56 -5 69
-4 12 0 22 -4 22 -9 0 -6 18 -10 41 -10 32 0 42 -4 46 -20 3 -11 11 -20 19
-20 7 0 17 -6 21 -14 11 -18 53 -31 53 -16 0 6 -4 9 -9 5 -5 -3 -12 -1 -15 4
-13 20 27 3 55 -23 16 -15 29 -23 29 -18 0 15 39 2 53 -17 27 -36 118 -112
127 -106 6 3 7 -1 4 -9 -4 -11 0 -16 10 -16 23 0 77 -90 71 -117 -4 -17 -2
-21 10 -17 10 4 15 0 15 -14 0 -11 15 -40 33 -64 19 -24 32 -49 30 -55 -3 -7
2 -27 10 -45 30 -69 35 -86 51 -168 15 -76 17 -162 13 -835 -3 -412 -6 -755
-8 -762 -4 -17 -639 -17 -663 0 -16 11 -17 66 -19 712 l-2 700 -23 40 c-13 22
-24 54 -24 73 0 29 -2 31 -16 20 -11 -9 -14 -9 -9 -1 5 7 -2 19 -17 28 -14 9
-22 22 -20 30 4 8 -5 15 -25 20 -17 4 -29 10 -26 14 2 5 -7 19 -21 32 -22 21
-24 21 -19 4 6 -19 6 -19 -8 -2 -8 9 -21 17 -28 17 -8 0 -23 6 -34 14 -32 21
-67 26 -199 27 -105 1 -127 -1 -142 -15 -9 -9 -26 -16 -38 -14 -11 2 -28 -4
-36 -13 -17 -18 -54 -34 -45 -19 10 17 -12 11 -26 -7 -10 -11 -10 -14 -1 -9 6
4 12 3 12 -3 0 -10 -38 -26 -55 -23 -5 1 -17 -12 -25 -28 -76 -146 -93 -183
-95 -203 -4 -37 -5 -38 -14 -33 -9 6 -22 -17 -20 -37 0 -7 3 -4 7 5 4 10 6
-282 4 -649 -2 -537 -6 -668 -16 -679 -18 -18 -657 -19 -668 -1 -4 7 -8 530
-8 1163 l0 1152 32 4 c51 8 563 10 591 2 l27 -6 0 -143 c0 -94 -4 -145 -11
-147 -6 -2 -2 -11 9 -21 18 -16 20 -16 42 3 13 11 27 20 32 20 5 0 6 5 2 11
-7 12 55 75 70 71 4 -2 30 18 57 43 27 25 53 43 58 40 5 -3 12 3 15 13 7 21
56 51 74 45 6 -3 12 1 12 8 0 7 3 10 6 7 3 -3 35 10 71 28 36 19 73 32 82 29
10 -3 26 2 37 10 11 8 43 15 79 15 33 1 80 5 105 10 25 4 65 6 89 3 24 -2 65
-7 90 -10z m-2021 -30 l33 -5 -3 -1148 c-2 -930 -5 -1150 -16 -1163 -12 -14
-54 -16 -339 -16 -225 -1 -330 3 -340 10 -11 9 -13 214 -13 1165 l0 1153 43 4
c64 6 597 6 635 0z m-1675 -3096 c-7 -12 -13 -3 -18 29 l-5 29 14 -25 c8 -14
12 -28 9 -33z m441 -315 c2 -4 -5 -9 -17 -9 -17 -2 -19 0 -7 7 18 12 18 12 24
2z"/>
<path d="M1545 4684 c-30 -8 -36 -11 -16 -9 18 3 50 5 70 5 27 0 32 3 21 10
-17 11 -12 12 -75 -6z"/>
<path d="M1855 4590 c-3 -5 -2 -10 4 -10 5 0 13 5 16 10 3 6 2 10 -4 10 -5 0
-13 -4 -16 -10z"/>
<path d="M1308 4073 c16 -30 28 -35 28 -13 0 11 -2 17 -5 15 -2 -3 -11 1 -19
8 -13 10 -14 9 -4 -10z"/>
<path d="M1485 3950 c3 -5 15 -10 26 -10 11 0 17 5 14 10 -3 6 -15 10 -26 10
-11 0 -17 -4 -14 -10z"/>
<path d="M3618 3533 c6 -2 18 -2 25 0 6 3 1 5 -13 5 -14 0 -19 -2 -12 -5z"/>
<path d="M3475 3480 c-3 -5 1 -10 9 -10 9 0 16 5 16 10 0 6 -4 10 -9 10 -6 0
-13 -4 -16 -10z"/>
<path d="M3476 3445 c4 -8 8 -15 10 -15 2 0 4 7 4 15 0 8 -4 15 -10 15 -5 0
-7 -7 -4 -15z"/>
<path d="M3329 3418 c-5 -18 -6 -38 -1 -34 7 8 12 36 6 36 -2 0 -4 -1 -5 -2z"/>
<path d="M4145 3410 c-3 -5 -1 -10 4 -10 6 0 11 5 11 10 0 6 -2 10 -4 10 -3 0
-8 -4 -11 -10z"/>
<path d="M4310 3416 c0 -2 7 -7 16 -10 8 -3 12 -2 9 4 -6 10 -25 14 -25 6z"/>
<path d="M3021 3264 c0 -11 3 -14 6 -6 3 7 2 16 -1 19 -3 4 -6 -2 -5 -13z"/>
<path d="M3120 2709 c0 -11 5 -17 10 -14 6 3 10 13 10 21 0 8 -4 14 -10 14 -5
0 -10 -9 -10 -21z"/>
<path d="M4050 1229 c0 -11 4 -18 10 -14 5 3 7 12 3 20 -7 21 -13 19 -13 -6z"/>
<path d="M4680 1230 c0 -11 5 -20 10 -20 6 0 10 9 10 20 0 11 -4 20 -10 20 -5
0 -10 -9 -10 -20z"/>
<path d="M1900 1224 c0 -8 5 -12 10 -9 6 4 8 11 5 16 -9 14 -15 11 -15 -7z"/>
<path d="M755 5840 c-3 -6 1 -7 9 -4 18 7 21 14 7 14 -6 0 -13 -4 -16 -10z"/>
<path d="M5105 5840 c3 -5 14 -10 23 -10 15 0 15 2 2 10 -20 13 -33 13 -25 0z"/>
<path d="M5430 5681 c0 -11 48 -24 61 -16 5 4 7 11 4 16 -8 12 -65 12 -65 0z"/>
<path d="M185 5440 c-3 -5 -1 -10 4 -10 6 0 11 5 11 10 0 6 -2 10 -4 10 -3 0
-8 -4 -11 -10z"/>
<path d="M68 5164 c-5 -4 -8 -16 -8 -28 0 -14 3 -17 11 -9 6 6 9 19 7 28 -1 9
-6 13 -10 9z"/>
<path d="M10 4944 c0 -14 4 -23 9 -20 5 3 7 15 4 26 -7 28 -13 25 -13 -6z"/>
<path d="M5861 816 c-7 -8 -11 -23 -8 -33 3 -14 6 -12 16 11 13 33 9 43 -8 22z"/>
<path d="M5726 533 c-4 -9 -3 -20 1 -24 4 -4 9 3 9 17 2 28 -1 31 -10 7z"/>
<path d="M5635 401 c2 -9 4 -20 4 -24 1 -5 6 -5 11 -2 15 9 12 42 -4 42 -7 0
-12 -7 -11 -16z"/>
<path d="M340 331 c0 -5 7 -14 15 -21 16 -14 18 -10 9 14 -6 17 -24 22 -24 7z"/>
<path d="M5487 263 c6 -16 46 -18 41 -1 -2 6 -14 12 -25 13 -14 1 -19 -3 -16
-12z"/>
<path d="M5555 270 c3 -5 8 -10 11 -10 2 0 4 5 4 10 0 6 -5 10 -11 10 -5 0 -7
-4 -4 -10z"/>
<path d="M5100 50 c0 -13 27 -13 35 0 3 6 -3 10 -14 10 -12 0 -21 -4 -21 -10z"/>
<path d="M788 38 c6 -6 18 -8 28 -6 14 3 12 5 -9 10 -19 3 -25 2 -19 -4z"/>
<path d="M858 23 c7 -3 16 -2 19 1 4 3 -2 6 -13 5 -11 0 -14 -3 -6 -6z"/>
</g>
</svg>
