<?xml version="1.0" standalone="no"?>
<!DOCTYPE svg PUBLIC "-//W3C//DTD SVG 20010904//EN"
 "http://www.w3.org/TR/2001/REC-SVG-20010904/DTD/svg10.dtd">
<svg version="1.0" xmlns="http://www.w3.org/2000/svg"
 width="352.000000pt" height="246.000000pt" viewBox="0 0 352.000000 246.000000"
 preserveAspectRatio="xMidYMid meet">

<g transform="translate(0.000000,246.000000) scale(0.100000,-0.100000)"
fill="#000000" stroke="none">
<path d="M1219 2449 c-441 -12 -736 -37 -851 -73 -70 -21 -127 -57 -185 -118
-88 -94 -120 -185 -148 -420 -41 -354 -41 -862 0 -1216 29 -246 65 -341 166
-437 120 -115 222 -137 764 -166 284 -16 1294 -16 1585 0 547 28 648 50 771
167 69 66 108 141 133 251 48 217 74 682 57 1034 -25 516 -64 682 -189 801
-67 64 -114 90 -198 111 -233 59 -1095 89 -1905 66z m661 -958 c239 -138 435
-256 435 -261 0 -7 -730 -435 -887 -521 -17 -9 -18 19 -18 521 0 502 1 530 18
521 9 -5 213 -122 452 -260z"/>
</g>
</svg>
